<svg width="28" height="27" viewBox="0 0 28 27" fill="none" xmlns="http://www.w3.org/2000/svg">
<path fill-rule="evenodd" clip-rule="evenodd" d="M1.83696 0.823773L1.7017 0.809627C1.20946 0.791632 0.767411 1.13974 0.681073 1.63858L0.666926 1.77385C0.648931 2.26609 0.997037 2.70814 1.49588 2.79447L3.50789 3.14246L4.72726 17.6701L4.7525 17.8884C4.99783 19.545 6.42269 20.7905 8.11976 20.7905H22.6691L22.8882 20.7835C24.4833 20.6816 25.8059 19.4753 26.0387 17.8729L27.3041 9.12834L27.3259 8.92748C27.4424 7.32871 26.1759 5.94112 24.5451 5.94112H5.74922L5.43625 2.20548L5.41266 2.05767C5.3214 1.67325 5.0089 1.37276 4.6103 1.30377L1.83696 0.823773ZM7.96517 18.782C7.30481 18.7097 6.7767 18.1794 6.72029 17.5033L5.91722 7.94112H24.5451L24.6626 7.94977C25.0836 8.01235 25.3878 8.40605 25.3247 8.84199L24.0594 17.5859L24.0277 17.7422C23.8672 18.3537 23.3133 18.7905 22.6691 18.7905H8.11976L7.96517 18.782ZM5.87762 24.9229C5.87762 23.8081 6.78119 22.9029 7.89629 22.9029C9.01124 22.9029 9.91629 23.8079 9.91629 24.9229C9.91629 26.038 9.01109 26.9415 7.89629 26.9415C6.78134 26.9415 5.87762 26.0378 5.87762 24.9229ZM20.8795 24.9229C20.8795 23.8079 21.7845 22.9029 22.8995 22.9029C24.0144 22.9029 24.9195 23.8079 24.9195 24.9229C24.9195 26.038 24.0143 26.9415 22.8995 26.9415C21.7847 26.9415 20.8795 26.038 20.8795 24.9229Z" fill="#4174CB"/>
</svg>
