<svg width="20" height="21" viewBox="0 0 20 21" fill="none" xmlns="http://www.w3.org/2000/svg">
<path fill-rule="evenodd" clip-rule="evenodd" d="M0 17.7642C0 19.4173 1.33089 20.7598 2.97574 20.7598H17.0252C18.6693 20.7598 20 19.4171 20 17.7642V14.7011C20 13.0474 18.6695 11.7046 17.0252 11.7046H2.97574C1.3307 11.7046 0 13.0473 0 14.7011V17.7642ZM2.97574 13.1C2.10413 13.1 1.39535 13.8151 1.39535 14.7011V17.7642C1.39535 18.6494 2.10423 19.3644 2.97574 19.3644H17.0252C17.8959 19.3644 18.6047 18.6493 18.6047 17.7642V14.7011C18.6047 13.8152 17.896 13.1 17.0252 13.1H2.97574Z" fill="#333333"/>
<path fill-rule="evenodd" clip-rule="evenodd" d="M0 3.75528C0 2.10221 1.33089 0.759766 2.97574 0.759766H17.0252C18.6693 0.759766 20 2.1024 20 3.75528V6.8194C20 8.4716 18.669 9.81491 17.0252 9.81491H2.97574C1.33117 9.81491 0 8.4718 0 6.8194V3.75528ZM2.97574 8.41957C2.10461 8.41957 1.39535 7.70394 1.39535 6.8194V3.75528C1.39535 2.87015 2.10423 2.15511 2.97574 2.15511H17.0252C17.8959 2.15511 18.6047 2.87026 18.6047 3.75528V6.8194C18.6047 7.70384 17.8955 8.41957 17.0252 8.41957H2.97574Z" fill="#333333"/>
</svg>
