<svg width="28" height="27" viewBox="0 0 28 27" fill="none" xmlns="http://www.w3.org/2000/svg">
<path fill-rule="evenodd" clip-rule="evenodd" d="M0.666748 22.8151C0.666748 25.0192 2.44127 26.8091 4.6344 26.8091H23.367C25.5592 26.8091 27.3334 25.0189 27.3334 22.8151V18.7309C27.3334 16.526 25.5594 14.7356 23.367 14.7356H4.6344C2.44101 14.7356 0.666748 16.5258 0.666748 18.7309V22.8151ZM4.6344 16.5961C3.47226 16.5961 2.52721 17.5496 2.52721 18.7309V22.8151C2.52721 23.9953 3.47239 24.9487 4.6344 24.9487H23.367C24.5279 24.9487 25.4729 23.9951 25.4729 22.8151V18.7309C25.4729 17.5497 24.528 16.5961 23.367 16.5961H4.6344Z" fill="#BDBDBD"/>
<path fill-rule="evenodd" clip-rule="evenodd" d="M0.666748 4.13648C0.666748 1.93238 2.44127 0.142456 4.6344 0.142456H23.367C25.5592 0.142456 27.3334 1.93264 27.3334 4.13648V8.22196C27.3334 10.4249 25.5588 12.216 23.367 12.216H4.6344C2.44165 12.216 0.666748 10.4252 0.666748 8.22196V4.13648ZM4.6344 10.3555C3.47289 10.3555 2.52721 9.40136 2.52721 8.22196V4.13648C2.52721 2.95631 3.47239 2.00292 4.6344 2.00292H23.367C24.5279 2.00292 25.4729 2.95644 25.4729 4.13648V8.22196C25.4729 9.40122 24.5274 10.3555 23.367 10.3555H4.6344Z" fill="#BDBDBD"/>
</svg>
