<svg width="20" height="21" viewBox="0 0 20 21" fill="none" xmlns="http://www.w3.org/2000/svg">
<path fill-rule="evenodd" clip-rule="evenodd" d="M6.01348 0.759766H2.97574C1.33089 0.759766 0 2.10221 0 3.75528V6.8194C0 8.4718 1.33117 9.81491 2.97574 9.81491H6.01348C7.65805 9.81491 8.98922 8.4718 8.98922 6.8194V3.75528C8.98922 2.10221 7.65833 0.759766 6.01348 0.759766ZM2.97574 2.15511H6.01348C6.88499 2.15511 7.59387 2.87015 7.59387 3.75528V6.8194C7.59387 7.70394 6.88461 8.41957 6.01348 8.41957H2.97574C2.10461 8.41957 1.39535 7.70394 1.39535 6.8194V3.75528C1.39535 2.87015 2.10423 2.15511 2.97574 2.15511ZM17.0252 0.759766H13.9865C12.3417 0.759766 11.0108 2.10221 11.0108 3.75528V6.8194C11.0108 8.4718 12.342 9.81491 13.9865 9.81491H17.0252C18.669 9.81491 20 8.4716 20 6.8194V3.75528C20 2.1024 18.6693 0.759766 17.0252 0.759766ZM13.9865 2.15511H17.0252C17.8959 2.15511 18.6047 2.87026 18.6047 3.75528V6.8194C18.6047 7.70384 17.8955 8.41957 17.0252 8.41957H13.9865C13.1154 8.41957 12.4061 7.70394 12.4061 6.8194V3.75528C12.4061 2.87015 13.115 2.15511 13.9865 2.15511ZM2.97574 11.7046H6.01348C7.65852 11.7046 8.98922 13.0473 8.98922 14.7011V17.7642C8.98922 19.4173 7.65833 20.7598 6.01348 20.7598H2.97574C1.33089 20.7598 0 19.4173 0 17.7642V14.7011C0 13.0473 1.3307 11.7046 2.97574 11.7046ZM6.01348 13.1H2.97574C2.10413 13.1 1.39535 13.8151 1.39535 14.7011V17.7642C1.39535 18.6494 2.10423 19.3644 2.97574 19.3644H6.01348C6.88499 19.3644 7.59387 18.6494 7.59387 17.7642V14.7011C7.59387 13.8151 6.88509 13.1 6.01348 13.1ZM17.0252 11.7046H13.9865C12.3415 11.7046 11.0108 13.0473 11.0108 14.7011V17.7642C11.0108 19.4173 12.3417 20.7598 13.9865 20.7598H17.0252C18.6693 20.7598 20 19.4171 20 17.7642V14.7011C20 13.0474 18.6695 11.7046 17.0252 11.7046ZM13.9865 13.1H17.0252C17.896 13.1 18.6047 13.8152 18.6047 14.7011V17.7642C18.6047 18.6493 17.8959 19.3644 17.0252 19.3644H13.9865C13.115 19.3644 12.4061 18.6494 12.4061 17.7642V14.7011C12.4061 13.8151 13.1149 13.1 13.9865 13.1Z" fill="#333333"/>
</svg>
